<svg width="16" height="16" viewBox="0 0 16 16" fill="none" xmlns="http://www.w3.org/2000/svg">
<path d="M4.00008 14.6665C3.63342 14.6665 3.31942 14.5358 3.05808 14.2745C2.79675 14.0132 2.6663 13.6994 2.66675 13.3332V6.6665C2.66675 6.29984 2.79742 5.98584 3.05875 5.7245C3.32008 5.46317 3.63386 5.33273 4.00008 5.33317H4.66675V3.99984C4.66675 3.07762 4.99186 2.29139 5.64208 1.64117C6.2923 0.990949 7.0783 0.66606 8.00008 0.666504C8.9223 0.666504 9.70853 0.991616 10.3587 1.64184C11.009 2.29206 11.3339 3.07806 11.3334 3.99984V5.33317H12.0001C12.3667 5.33317 12.6807 5.46384 12.9421 5.72517C13.2034 5.9865 13.3339 6.30028 13.3334 6.6665V13.3332C13.3334 13.6998 13.2027 14.0138 12.9414 14.2752C12.6801 14.5365 12.3663 14.6669 12.0001 14.6665H4.00008ZM8.00008 11.3332C8.36675 11.3332 8.68075 11.2025 8.94208 10.9412C9.20342 10.6798 9.33386 10.3661 9.33342 9.99984C9.33342 9.63317 9.20275 9.31917 8.94142 9.05784C8.68008 8.7965 8.3663 8.66606 8.00008 8.6665C7.63342 8.6665 7.31942 8.79717 7.05808 9.0585C6.79675 9.31984 6.6663 9.63362 6.66675 9.99984C6.66675 10.3665 6.79742 10.6805 7.05875 10.9418C7.32008 11.2032 7.63386 11.3336 8.00008 11.3332ZM6.00008 5.33317H10.0001V3.99984C10.0001 3.44428 9.80564 2.97206 9.41675 2.58317C9.02786 2.19428 8.55564 1.99984 8.00008 1.99984C7.44453 1.99984 6.9723 2.19428 6.58342 2.58317C6.19453 2.97206 6.00008 3.44428 6.00008 3.99984V5.33317Z" fill="black"/>
</svg>
